<?xml version="1.0" encoding="utf-8"?>
<!-- Generator: Adobe Illustrator 15.0.0, SVG Export Plug-In . SVG Version: 6.00 Build 0)  -->
<!DOCTYPE svg PUBLIC "-//W3C//DTD SVG 1.1//EN" "http://www.w3.org/Graphics/SVG/1.1/DTD/svg11.dtd">
<svg version="1.1" id="Layer_1" xmlns="http://www.w3.org/2000/svg" xmlns:xlink="http://www.w3.org/1999/xlink" x="0px" y="0px"
	 width="300px" height="300px" viewBox="0 0 300 300" enable-background="new 0 0 300 300" xml:space="preserve">
<g>
	<polygon fill="#F1BE1A" points="47.5,144.75 68.856,130.835 54.428,109.818 79.496,105.169 74.227,80.226 99.171,85.494 
		103.82,60.428 124.835,74.855 138.75,53.5 152.666,74.855 173.682,60.428 178.331,85.495 203.274,80.227 198.005,105.169 
		223.072,109.819 208.644,130.835 230,144.75 208.644,158.664 223.072,179.682 198.004,184.33 203.273,209.273 178.33,204.005 
		173.68,229.072 152.665,214.645 138.75,236 124.834,214.644 103.818,229.072 99.17,204.005 74.226,209.272 79.495,184.329 
		54.428,179.681 68.856,158.664 	"/>
</g>
<g>
	<g>
		<path d="M9.039,49.8c5.321-5.322,8.085-7.824,13.777-12.512c4.494-3.7,8.198-6.054,10.933-7.298s5.352-1.6,7.794-1.104
			s4.688,2.429,6.783,5.722c1.417,2.227,1.909,4.09,1.51,5.594c-0.399,1.503-4.277,5.812-4.277,5.812
			c0.029,0.041,6.094-2.19,7.962-1.702c1.867,0.489,3.567,2.003,5.129,4.494c0.89,1.419,1.333,2.13,2.222,3.549
			c1.621,2.585,2.456,4.729,2.538,6.421c0.082,1.693-0.48,3.253-1.677,4.718c-1.196,1.465-4.096,3.752-8.516,7.279
			c-5.084,4.057-7.544,6.248-12.251,10.956C30.325,71.084,19.681,60.442,9.039,49.8z M27.752,43.232
			c2.549,3.104,3.822,4.656,6.371,7.761c0.541-0.47,0.969-0.828,1.278-1.078c1.277-1.031,1.926-1.892,1.935-2.617
			c0.009-0.725-0.8-2.149-2.433-4.272c-0.862-1.12-1.618-1.787-2.272-1.998c-0.654-0.21-1.276-0.179-1.862,0.094
			C30.185,41.394,29.172,42.088,27.752,43.232z M38.584,56.425c3.207,3.905,4.81,5.859,8.017,9.766
			c1.58-1.372,2.467-2.392,2.636-3.113s-0.298-1.807-1.41-3.251c-1.027-1.335-1.541-2.002-2.568-3.337
			c-1.179-1.532-2.111-2.294-2.8-2.276C41.771,54.231,40.466,54.948,38.584,56.425z"/>
		<path d="M66.284,19.361c0.592,1.873,0.892,2.808,1.497,4.676c0.602-4.142,3.006-7.278,7.107-9.162
			c1.96,4.828,2.94,7.241,4.9,12.069c-2.58,1.046-4.345,2.13-5.305,3.171c-0.959,1.042-1.354,2.085-1.203,3.111
			c0.151,1.027,0.992,3.166,2.517,6.416c2.483,5.293,3.725,7.938,6.208,13.232c-4.728,2.217-7.055,3.438-11.609,6.103
			C64.168,48.324,57.942,37.672,51.72,27.016C57.433,23.672,60.352,22.144,66.284,19.361z"/>
		<path d="M92.163,1.082c0.637,2.267,0.956,3.399,1.593,5.666c-6.493,1.82-9.71,2.882-16.048,5.305
			c-0.842-2.199-1.263-3.299-2.105-5.498C82.143,4.055,85.462,2.96,92.163,1.082z M94.366,8.923
			c3.343,11.878,6.683,23.756,10.023,35.635c-5.112,1.433-7.646,2.268-12.635,4.175c-4.416-11.522-8.827-23.047-13.238-34.57
			C84.776,11.769,87.952,10.721,94.366,8.923z"/>
		<path d="M136.1,2.304c0.4,9.493,0.797,18.985,1.195,28.479c0.162,3.845,0.164,6.333,0.011,7.466s-0.813,2.355-1.94,3.678
			c-1.127,1.323-2.71,2.385-4.746,3.238c-2.034,0.854-4.605,1.47-7.745,1.944c-3.86,0.583-7.041,0.605-9.652-0.064
			s-4.423-2.673-5.373-6.115c4.933-1.229,7.423-1.736,12.427-2.535c0.26,1.615,1.057,2.313,2.398,2.118
			c0.963-0.14,1.57-0.473,1.82-1.013s0.275-1.604,0.069-3.19c-0.144-1.107-0.215-1.662-0.359-2.77
			c-1.029,1.016-2.125,1.84-3.301,2.472s-2.429,1.064-3.78,1.308c-2.337,0.421-4.33,0.418-6.021-0.047
			c-1.691-0.464-2.983-1.256-3.867-2.409s-1.634-2.917-2.229-5.298c-1.304-5.217-1.957-7.826-3.261-13.043
			c-0.853-3.409-0.617-6.084,0.777-7.993c1.394-1.91,3.938-3.274,7.583-3.952c1.993-0.371,3.864-0.389,5.591-0.072
			c1.727,0.317,3.307,0.971,4.726,1.95c0.306-1.168,0.461-1.753,0.782-2.92C127.145,2.799,130.129,2.553,136.1,2.304z
			 M121.336,13.415c-0.22-1.677-0.489-2.729-0.817-3.155s-0.952-0.577-1.867-0.446c-0.891,0.127-1.48,0.484-1.765,1.064
			s-0.305,1.643-0.062,3.186c0.776,4.915,1.164,7.371,1.94,12.286c0.258,1.635,0.552,2.68,0.875,3.127
			c0.324,0.448,0.876,0.611,1.665,0.497c0.899-0.13,1.443-0.504,1.637-1.131c0.192-0.626,0.155-1.976-0.118-4.06
			C122.23,20.237,121.932,17.961,121.336,13.415z"/>
		<path d="M158.137,2.71c-0.219,1.352-0.325,2.029-0.54,3.381c1.245-1.269,2.744-2.168,4.485-2.677
			c1.739-0.508,3.721-0.625,5.912-0.334c2.745,0.365,4.919,1.175,6.486,2.365c1.568,1.192,2.45,2.53,2.675,3.982
			s0.018,3.768-0.602,6.943c-1.987,10.184-2.98,15.275-4.966,25.459c-5.041-0.979-7.582-1.355-12.676-1.887
			c1.069-10.196,1.602-15.296,2.671-25.492c0.266-2.533,0.317-4.089,0.146-4.666c-0.171-0.578-0.784-0.923-1.831-1.019
			c-1.099-0.101-1.815,0.164-2.145,0.78c-0.332,0.617-0.604,2.319-0.819,5.1c-0.774,9.978-1.16,14.964-1.934,24.941
			c-5.105-0.394-7.667-0.479-12.785-0.426c-0.133-12.336-0.265-24.671-0.393-37.007C148.351,2.087,151.621,2.197,158.137,2.71z"/>
		<path d="M213.503,30.124c-1.493,3.305-2.239,4.958-3.732,8.263c-1.371,3.033-2.567,5.171-3.572,6.422s-2.381,2.226-4.102,2.958
			c-1.721,0.733-3.612,1.024-5.693,0.907c-2.083-0.118-4.309-0.594-6.726-1.4c-2.699-0.901-4.922-1.847-6.682-2.906
			c-1.759-1.06-3.049-2.242-3.865-3.58c-0.816-1.339-1.297-2.823-1.421-4.463s0.145-3.993,0.832-7.061
			c0.83-3.701,1.243-5.553,2.072-9.254c0.752-3.356,1.827-5.872,3.272-7.522c1.443-1.649,3.643-2.732,6.609-3.156
			c2.966-0.423,6.572-0.009,10.705,1.354c3.469,1.144,6.297,2.587,8.459,4.234s3.641,3.33,4.454,4.992
			c0.813,1.661,1.174,3.186,1.112,4.562C215.163,25.853,214.583,27.734,213.503,30.124z M200.37,21.89
			c0.624-1.791,0.884-2.967,0.777-3.524s-0.604-0.991-1.49-1.286c-0.884-0.295-1.553-0.247-1.998,0.127
			c-0.446,0.375-0.955,1.465-1.532,3.271c-2.033,6.367-3.05,9.549-5.083,15.915c-0.532,1.666-0.749,2.795-0.656,3.38
			c0.092,0.586,0.505,0.995,1.243,1.24c0.758,0.252,1.333,0.196,1.734-0.177s0.866-1.314,1.392-2.825
			C197.001,31.562,198.125,28.339,200.37,21.89z"/>
		<path d="M242.863,21.766c-7.83,12.857-15.661,25.714-23.49,38.571c-4.649-2.837-7.029-4.135-11.869-6.497
			c6.602-13.53,13.202-27.061,19.804-40.591C233.652,16.345,236.77,18.048,242.863,21.766z"/>
		<path d="M247.038,51.957c-4.603-3.596-6.966-5.281-11.794-8.422c0.541-0.833,0.81-1.251,1.351-2.084
			c1.559-2.402,3.148-4.003,4.796-4.774c1.647-0.771,4.014-0.853,7.1-0.121s6.573,2.558,10.303,5.579
			c4.47,3.621,7.281,7.091,8.5,10.076c1.219,2.985,1.293,5.399,0.325,7.201s-3.628,4.858-7.953,9.183
			c-5.253,5.253-7.881,7.88-13.135,13.133c-3.799-3.799-5.766-5.595-9.813-8.971c0.844-1.014,1.264-1.521,2.107-2.535
			c-1.495,0.476-2.952,0.565-4.384,0.27s-2.847-0.985-4.277-2.053c-1.872-1.396-3.287-3.074-4.285-5.089
			c-0.998-2.016-0.522-4.583,1.513-7.719c0.662-1.021,0.995-1.53,1.657-2.551c1.509-2.324,3.009-3.602,4.523-3.8
			s4.565,0.412,9.125,2.134c4.883,1.844,7.637,2.892,8.236,2.735s1.392-0.827,2.376-2.017c1.232-1.489,1.876-2.594,1.925-3.312
			c0.049-0.719-0.305-1.389-1.063-1.998c-0.865-0.695-1.559-0.926-2.074-0.704c-0.515,0.223-1.406,1.148-2.675,2.777
			C248.468,50.119,247.991,50.734,247.038,51.957z M247.652,58.967c-2.712-0.534-4.48-0.509-5.329-0.041s-1.784,1.367-2.812,2.687
			c-1.177,1.511-1.812,2.582-1.91,3.216c-0.097,0.633,0.216,1.234,0.938,1.816c0.686,0.553,1.266,0.75,1.751,0.583
			c0.483-0.167,1.322-0.963,2.507-2.396C244.74,62.485,245.71,61.312,247.652,58.967z"/>
	</g>
</g>
<text transform="matrix(1 0 0 1 54.499 267.3047)" font-family="'Impact'" font-size="29.4145">Property Service</text>
<circle fill="#F6EB13" cx="138.75" cy="144.75" r="60.75"/>
<text transform="matrix(1 0 0 1 66.5088 295.9707)" font-family="'Impact'" font-size="29.4145">610-608-2756</text>
</svg>
