<?xml version="1.0" encoding="utf-8"?>
<!-- Generator: Adobe Illustrator 15.0.0, SVG Export Plug-In . SVG Version: 6.00 Build 0)  -->
<!DOCTYPE svg PUBLIC "-//W3C//DTD SVG 1.1//EN" "http://www.w3.org/Graphics/SVG/1.1/DTD/svg11.dtd">
<svg version="1.1" id="Layer_1" xmlns="http://www.w3.org/2000/svg" xmlns:xlink="http://www.w3.org/1999/xlink" x="0px" y="0px"
	 width="3000px" height="3000px" viewBox="0 0 3000 3000" enable-background="new 0 0 3000 3000" xml:space="preserve">
<radialGradient id="SVGID_1_" cx="1500" cy="1501.5" r="1499.2502" gradientUnits="userSpaceOnUse">
	<stop  offset="0" style="stop-color:#FFFFFF"/>
	<stop  offset="0" style="stop-color:#FFFFFF"/>
	<stop  offset="0.3952" style="stop-color:#E8EDF0"/>
	<stop  offset="1" style="stop-color:#BDCCD4"/>
</radialGradient>
<rect y="3" opacity="0.37" fill="url(#SVGID_1_)" width="3000" height="2997"/>
<linearGradient id="SVGID_2_" gradientUnits="userSpaceOnUse" x1="2404.0264" y1="1277.8994" x2="2614.4626" y2="1511.6127">
	<stop  offset="0" style="stop-color:#FFFFFF"/>
	<stop  offset="0" style="stop-color:#FFFFFF"/>
	<stop  offset="0.1046" style="stop-color:#FDE3EE"/>
	<stop  offset="0.432" style="stop-color:#F690BD"/>
	<stop  offset="0.7005" style="stop-color:#F15498"/>
	<stop  offset="0.8967" style="stop-color:#EE2E82"/>
	<stop  offset="1" style="stop-color:#ED2079"/>
</linearGradient>
<circle fill="url(#SVGID_2_)" cx="2509.244" cy="1394.756" r="157.244"/>
<linearGradient id="SVGID_3_" gradientUnits="userSpaceOnUse" x1="1083.0122" y1="3261.999" x2="1275.1392" y2="2358.1128">
	<stop  offset="0" style="stop-color:#FFFFFF"/>
	<stop  offset="0" style="stop-color:#FAFDFE"/>
	<stop  offset="0" style="stop-color:#EDF9FB"/>
	<stop  offset="0" style="stop-color:#D7F1F6"/>
	<stop  offset="0" style="stop-color:#B8E6EE"/>
	<stop  offset="0" style="stop-color:#91D8E5"/>
	<stop  offset="0" style="stop-color:#6FCCDD"/>
	<stop  offset="0.263" style="stop-color:#91D8E5"/>
	<stop  offset="0.8408" style="stop-color:#E6F6F9"/>
	<stop  offset="1" style="stop-color:#FFFFFF"/>
</linearGradient>
<circle fill="url(#SVGID_3_)" cx="1179.076" cy="2810.055" r="461.944"/>
<g>
	<g opacity="0.5">
		<path fill="#5EC8F3" d="M3304,115c2,13,3,26,5,39c1,9,1,19,2,28c15,150,18,297,5,446c0,4,0,7,0,11c-19,223-68,438-149,647
			c-14,36-28,70-45,105c-4,9-8,19-12,28c-1,1-2,3-3,4c-53,113-111,215-187,321c-1,2-1,3-2,5c-23,31-43,59-67,89c-3,4-7,7-10,11
			c-63,78-125,146-198,214c-30,28-58,54-90,80c-1,1-2,3-3,4c-5,4-11,8-16,12c-20,18-39,35-59,53c-14,13-26,25-40,38
			c-47,47-90,91-132,143c-1,1-3,2-4,3c-7,10-14,18-22,27c-31,39-58,75-88,116c-7,10-13,19-20,29c-2,3-3,6-5,9
			c-65,94-113,182-160,281c-6,12-11,25-17,37c-76,169-126,339-160,525c-1,4-1,7-1,11c-9,52-16,101-21,153c0,3-2,7-2,10
			c-17,189-15,377,10,564c-11-4-21-8-32-12c-1-13-3-26-4-39c0-4-1-7-2-11c-1-13-2-26-4-39c-26-280-7-553,65-829c2-5,3-10,5-15
			c29-110,65-212,109-315c5-11,10-21,15-32c4-8,7-16,10-24c1-1,2-3,3-4c43-94,91-178,149-267c5-7,10-14,15-21c2-3,3-6,5-9
			c8-11,16-21,23-33c23-34,45-62,70-93c11-13,21-25,32-39c1-1,3-2,4-3c74-89,149-164,237-239c1-1,2-3,3-4c5-4,11-8,16-12
			c1-1,2-3,3-4c87-72,161-145,234-231c1-1,3-2,4-3c17-21,34-40,51-62c26-34,49-65,75-100c1-2,1-3,2-5c5-7,10-13,15-20c2-3,3-6,5-9
			c208-306,316-627,357-980c2-24,5-46,7-70c0-3,0-7,0-10c1-9,2-18,2-27c12-165,6-330-15-494C3283,107,3293,111,3304,115L3304,115z"
			/>
	</g>
	<g opacity="0.5">
		<path fill="#7FCDC3" d="M3398,158c4,25,5,49,8,74c0,9,1,19,2,28c0,4,0,7,0,11c9,126,9,251-2,377c0,4,0,7,0,11
			c-22,257-83,503-185,740c-1,3-3,6-5,9c-47,108-100,206-166,308c-6,9-11,17-17,26c-2,3-3,6-5,9c-8,10-14,19-21,29c-2,3-3,6-5,9
			c-15,19-27,38-43,57c-9,11-16,21-24,33c-2,3-5,4-7,7c-89,113-180,207-288,299c-1,1-2,3-3,4c-61,49-113,99-168,154c-2,3-4,5-6,8
			c-90,92-162,184-236,293c-1,2-1,3-2,5c-7,10-13,19-19,29c-2,3-4,5-6,8c-1,2-1,3-2,5c-5,7-9,14-13,21c-2,3-4,5-6,8
			c-186,312-285,647-309,1000c-2,36-4,71-5,107c0,42-1,83,1,125c0,29,2,58,3,87c3,42,6,83,11,126c2,9,2,19,4,28c-3-2-7-2-10-3
			c-11-4-21-8-32-12c-21-8-42-16-63-24c-20-184-21-368-2-555c0-3,2-7,2-10c4-40,9-78,16-118c0-2,0-4,0-6c20-112,43-214,76-321
			c8-24,15-46,23-70c2-5,4-9,6-14c18-54,40-104,61-156c1-3,3-6,5-9c41-94,88-179,142-269c2-3,4-5,6-8c1-2,1-3,2-5c4-6,8-11,11-17
			c5-7,10-14,15-21c1-2,1-3,2-5c8-12,15-22,23-34c43-59,81-112,128-165c3-4,6-8,9-12c51-59,102-111,158-165c77-72,155-132,229-207
			c22-23,43-45,65-68c2-3,4-5,6-8c1-1,3-2,4-3c3-4,6-8,9-12c1-1,3-2,4-3c4-5,8-10,13-15c3-4,6-8,9-12c1-1,3-2,4-3c6-8,12-15,19-23
			c103-126,186-254,256-398c1-1,2-3,3-4c4-9,8-18,13-27c20-43,38-87,57-130c2-12,9-22,13-34c4-13,9-25,14-38c49-138,84-274,106-421
			c3-21,6-42,8-63c27-204,25-405,0-606C3328,133,3363,145,3398,158L3398,158z"/>
	</g>
	<g opacity="0.5">
		<path fill="#6964AD" d="M3359,115c28,293,12,583-63,876c-4,16-8,30-12,46c-30,109-67,211-111,314c-1,1-2,3-3,4c-4,10-8,19-12,29
			c-4,8-7,16-11,24c-1,1-2,3-3,4c-83,178-185,338-315,490c-8,10-16,21-26,31c-1,1-3,2-4,3c-86,100-178,181-277,267
			c-20,18-39,35-57,54c-2,2-5,4-8,6c-52,52-99,102-147,158c-4,5-8,11-12,16c-2,3-5,4-7,7c-38,48-71,91-105,142c-8,12-16,22-23,33
			c-5,9-10,16-16,25c-1,2-1,3-2,5c-49,76-87,148-125,227c-9,18-16,37-24,55c-1,1-2,3-3,4c-88,205-143,416-170,638c-2,20-4,38-6,58
			c-10,120-13,238-6,358c1,20,3,40,4,60c3,31,5,62,10,93c-30-10-59-23-89-34c-26-9-51-19-77-29c-34-337-4-676,99-1004
			c30-93,64-181,104-270c1-1,2-3,3-4c34-77,72-147,116-221c10-16,19-31,30-48c4-6,8-11,12-17c1-2,1-3,2-5c7-9,12-16,18-25
			c1-2,1-3,2-5c44-64,85-118,133-176c10-12,20-23,30-35c62-70,123-134,194-195c1-1,2-3,3-4c6-4,10-9,16-13c1-1,2-3,3-4
			c103-87,194-173,280-277c1-1,3-2,4-3c10-13,20-25,31-38c105-133,189-267,258-417c1-1,2-3,3-4c32-71,62-141,87-215c1-5,3-10,4-15
			c1-3,3-6,4-9c1-5,3-10,4-15c1-3,3-6,4-9c32-101,56-199,73-305c2-11,5-20,6-31c0-2,0-4,0-6c35-222,37-439,11-657c3,2,7,2,10,3
			c6,3,12,5,18,8c20,7,40,15,60,23C3308,95,3333,106,3359,115L3359,115z"/>
	</g>
	<g opacity="0.5">
		<path fill="#C16FAD" d="M3248,74c23,227,18,450-22,681c0,2,0,4,0,6c-15,80-29,153-52,230c-1,4-1,7-2,11c-20,67-40,131-64,196
			c-9,23-19,45-27,69c-1,1-2,3-3,4c-11,30-25,58-37,87c-1,1-2,3-3,4c-43,94-90,179-148,268c-1,2-1,3-2,5c-21,30-37,56-58,85
			c-22,30-42,56-65,86c-20,25-39,46-59,71c-1,1-3,2-4,3c-9,11-17,21-27,31c-2,3-4,6-6,8c-5,4-9,10-14,15c-1,1-3,2-4,3
			c-45,51-91,94-141,140c-11,9-20,18-31,26c-1,1-2,3-3,4c-100,84-186,167-270,266c-4,5-8,11-12,16c-1,1-3,2-4,3c-10,14-20,25-30,39
			c-1,1-3,2-4,3c-16,19-28,39-43,59c-139,189-234,380-303,596c-1,3-3,6-4,9c-104,327-131,668-92,1004c-55-21-110-43-165-63
			c-17-178-18-355,2-535c0-6,1-11,1-17c11-94,26-183,48-277c7-29,13-55,21-83c2-5,3-10,5-15c29-108,66-208,109-309c6-14,13-28,19-43
			c1-1,2-3,3-4c23-51,47-99,75-149c11-18,20-35,31-54c2-3,4-5,6-8c20-34,38-63,61-96c2-3,3-6,5-9c32-45,60-85,94-128
			c18-22,34-42,52-64c1-1,3-2,4-3c5-7,11-13,16-20c3-4,7-7,11-11c57-66,117-123,179-181c109-92,212-187,306-301c1-1,3-2,4-3
			c11-13,20-25,31-38c31-38,56-74,85-115c1-2,1-3,2-5c15-19,26-37,39-57c5-9,10-17,15-26c4-5,7-10,11-16c145-239,232-481,281-756
			c2-12,4-24,6-36c0-2,0-4,0-6c31-187,36-368,22-553c-2-37-5-73-10-109c28,9,55,22,84,31c4,2,9,4,13,6c2,1,3,0,5,1c10,5,21,8,32,12
			C3227,66,3237,71,3248,74L3248,74z"/>
	</g>
	<g opacity="0.5">
		<path fill="#EC629A" d="M3104,21c18,184,22,368,1,554c0,5-1,11-1,16c-2,16-4,32-6,49c-17,127-43,247-80,370c-1,3-3,7-4,10
			c-8,30-18,56-27,85c-17,48-35,95-55,142c-8,17-15,34-23,52c-60,131-127,247-214,369c-7,10-14,18-21,28c-54,73-107,134-167,199
			c-5,5-10,10-14,14c-52,53-104,99-159,149c-4,3-8,6-12,9c-1,1-2,3-3,4c-4,3-8,6-12,9c-1,1-2,3-3,4c-6,4-10,8-15,13c-3,2-5,4-8,6
			c-1,1-2,3-3,4c-3,2-5,4-8,6c-1,1-2,3-3,4c-3,2-5,4-8,6c-1,1-2,3-3,4c-3,2-6,4-8,6c-2,3-4,5-7,7c-1,1-2,3-3,4
			c-57,52-106,106-157,164c-3,4-6,8-9,12c-2,3-5,4-7,7c-5,7-10,13-15,20c-1,1-3,2-4,3c-25,33-48,61-72,95c-11,18-22,32-34,49
			c-1,2-1,3-2,5c-91,135-157,265-214,409c-6,16-12,32-18,48c-3,12-8,22-11,34c-3,8-6,16-9,24c-1,5-3,10-4,15c-1,3-3,6-4,9
			c-15,50-29,98-42,149c-2,7-2,14-4,21c-12,45-18,86-28,132c-1,4-1,7-1,11c-7,41-14,79-17,120c0,3-2,7-2,10c0,9-2,18-2,27
			c0,3-2,7-2,10c-17,180-13,359,8,537c-14-6-27-11-41-15c-17-6-33-14-51-19c-4-2-9-4-13-6c-2-9-2-19-3-28c0-4-2-7-2-11
			c-26-281-11-554,58-833c6-21,10-40,16-61c17-60,35-117,56-176c14-38,28-75,44-112c8-17,14-35,23-52c4-8,7-16,11-24c1-1,2-3,3-4
			c19-45,42-86,66-129c14-26,27-50,43-76c14-22,27-42,41-65c6-9,11-16,17-25c39-58,76-107,119-160c1-1,3-2,4-3
			c88-108,179-197,285-287c91-78,170-156,247-249c2-3,5-4,7-7c5-7,10-13,15-20c1-1,3-2,4-3c34-45,66-84,97-132c4-6,8-10,12-16
			c180-269,282-539,337-851c1-4,1-7,1-11c3-18,6-34,8-52c1-5,2-10,3-15c4-36,9-70,12-106c1-16,2-31,4-47c11-160,6-320-13-479
			c22,8,43,16,65,24C3077,11,3091,15,3104,21L3104,21z"/>
	</g>
	<g opacity="0.5">
		<path fill="#EAB063" d="M3057,6c33,319,9,638-81,952c-6,19-12,36-17,56c-1,4-3,7-4,10c-24,78-53,151-85,226c-5,11-10,22-15,33
			c-2,3-4,6-5,9c-134,290-322,539-569,750c-92,79-174,157-252,250c-1,1-3,2-4,3c-6,8-12,16-19,23c-8,9-14,18-21,27c-2,3-5,4-7,7
			c-25,32-47,61-71,95c-13,19-23,34-36,53c-311,470-409,1004-343,1535c-50-19-100-38-150-57c-22-217-19-432,16-653c0-2,0-4,0-6
			c3-14,5-28,8-42c0-2,0-4,0-6c42-231,110-439,214-645c29-56,57-108,91-163c11-18,22-34,33-52c5-7,10-14,15-21c2-3,3-6,5-9
			c33-47,62-88,97-132c15-18,27-34,42-52c11-12,20-23,30-35c6-6,11-13,17-19c5-5,9-10,14-15c1-1,3-2,4-3c42-47,83-88,129-130
			c57-51,112-97,168-149c48-46,91-92,136-142c3-4,6-8,9-12c17-19,32-37,47-57c2-3,5-4,7-7c38-48,69-92,104-144c1-2,1-3,2-5
			c12-17,22-32,32-50c2-3,4-5,6-8c3-6,6-11,10-17c1-2,1-3,2-5c2-3,4-5,6-8c1-2,1-3,2-5c68-117,123-233,167-359c2-5,4-9,6-14
			c120-343,154-707,110-1064c21,7,41,15,62,23C2998-16,3028-6,3057,6L3057,6z"/>
	</g>
	<g opacity="0.5">
		<path fill="#E8E264" d="M2919-47c18,161,23,322,9,484c0,4,0,7,0,11c-9,101-23,200-43,299c-6,13-6,27-9,41c-4,14-7,28-10,42
			c-4,16-8,31-12,46c-2,5-3,10-5,15c-14,54-31,103-48,156c-2,7-5,13-8,19c-60,165-132,313-234,465c-2,3-3,6-5,9c-6,9-11,16-18,25
			c-1,2-1,3-2,5c-37,52-71,98-111,146c-9,10-17,20-26,31c-1,1-3,2-4,3c-75,91-155,165-244,242c-4,3-8,6-12,9c-1,1-2,3-3,4
			c-4,3-8,6-12,9c-1,1-2,3-3,4c-4,3-8,5-12,9c-3,4-7,7-11,10c-1,1-2,3-3,4c-3,2-5,4-8,6c-1,1-2,3-3,4c-3,2-5,4-8,6c-1,1-2,3-3,4
			c-112,103-203,207-292,336c-5,7-10,13-15,20c-1,2-1,3-2,5c-20,26-34,52-52,79c-25,40-45,77-67,118c-2,5-4,9-6,14
			c-10,18-18,36-28,54c-4,8-7,15-10,23c-1,1-2,3-3,4c-27,63-54,124-76,189c-2,5-4,9-6,14c-20,61-38,120-55,183c-8,32-14,63-22,96
			c-4,19-7,37-11,56c-1,4-1,7-1,11c-8,46-16,89-20,135c0,4-2,7-2,11c-1,20-4,38-6,58c-13,143-11,285,0,428c2,21,4,40,6,61
			c1,11,3,22,4,33c-13-6-27-10-41-15c-18-8-36-13-53-21c-49-419,5-848,176-1239c5-12,10-25,16-38c1-1,2-3,3-4c43-97,92-184,150-276
			c3-4,6-8,9-12c2-3,3-6,5-9c5-7,10-14,15-21c2-3,3-6,5-9c58-81,111-152,177-223c2-3,4-6,6-8c5-4,9-10,14-15c1-1,3-2,4-3
			c57-62,114-116,179-171c1-1,2-3,3-4c36-29,67-57,100-89c3-2,6-4,8-6c2-3,4-5,7-7c1-1,2-3,3-4s3-2,4-3s2-3,3-4s3-2,4-3s2-3,3-4
			s3-2,4-3s2-3,3-4s3-2,4-3s2-3,3-4s3-2,4-3s2-3,3-4s3-2,4-3s2-3,3-4s3-2,4-3s2-3,3-4s3-2,4-3s2-3,3-4s3-2,4-3c9-10,17-20,27-29
			c2-3,4-5,6-8c1-1,3-2,4-3c4-5,8-10,13-15c2-3,4-5,6-8c1-1,3-2,4-3c3-4,6-8,9-12c1-1,3-2,4-3c13-16,25-30,38-46c29-36,54-69,81-107
			c7-10,13-18,19-29c4-6,8-10,12-16c64-98,117-191,163-294c1-1,2-3,3-4c10-24,20-47,30-70c8-17,14-35,21-52
			c137-355,178-733,135-1112c-1-9-2-18-4-27c7,1,13,4,19,7C2869-66,2894-57,2919-47L2919-47z"/>
	</g>
</g>
<linearGradient id="SVGID_4_" gradientUnits="userSpaceOnUse" x1="2270.4746" y1="2193.3652" x2="2667.1433" y2="2503.2769">
	<stop  offset="0" style="stop-color:#FFFFFF"/>
	<stop  offset="0" style="stop-color:#FFFFFF"/>
	<stop  offset="0.1057" style="stop-color:#F8F9FC"/>
	<stop  offset="0.2559" style="stop-color:#E6E9F3"/>
	<stop  offset="0.4326" style="stop-color:#C7CEE5"/>
	<stop  offset="0.6295" style="stop-color:#9DA9D2"/>
	<stop  offset="0.8405" style="stop-color:#677BB9"/>
	<stop  offset="1" style="stop-color:#3953A4"/>
</linearGradient>
<circle fill="url(#SVGID_4_)" cx="2468.81" cy="2348.321" r="251.678"/>
<linearGradient id="SVGID_5_" gradientUnits="userSpaceOnUse" x1="2704.5547" y1="676.0029" x2="2879.3855" y2="494.9602">
	<stop  offset="0" style="stop-color:#FFFFFF"/>
	<stop  offset="0" style="stop-color:#FFFFFF"/>
	<stop  offset="0.0879" style="stop-color:#FAFDF8"/>
	<stop  offset="0.2127" style="stop-color:#ECF6E6"/>
	<stop  offset="0.3595" style="stop-color:#D5EAC7"/>
	<stop  offset="0.5218" style="stop-color:#B5DA9D"/>
	<stop  offset="0.5706" style="stop-color:#AAD58F"/>
	<stop  offset="1" style="stop-color:#69BD45"/>
</linearGradient>
<circle fill="url(#SVGID_5_)" cx="2791.971" cy="585.482" r="125.839"/>
<radialGradient id="SVGID_6_" cx="1671.6602" cy="1552.1719" r="111.5916" gradientUnits="userSpaceOnUse">
	<stop  offset="0" style="stop-color:#F6EB13"/>
	<stop  offset="0.3785" style="stop-color:#F6EB15"/>
	<stop  offset="0.5148" style="stop-color:#F6EC1C"/>
	<stop  offset="0.612" style="stop-color:#F7ED27"/>
	<stop  offset="0.6906" style="stop-color:#F7EE38"/>
	<stop  offset="0.758" style="stop-color:#F8F04E"/>
	<stop  offset="0.8176" style="stop-color:#F9F26A"/>
	<stop  offset="0.8716" style="stop-color:#FBF58A"/>
	<stop  offset="0.9211" style="stop-color:#FCF8B0"/>
	<stop  offset="0.9652" style="stop-color:#FEFCD9"/>
	<stop  offset="1" style="stop-color:#FFFFFF"/>
	<stop  offset="1" style="stop-color:#FFFFFF"/>
</radialGradient>
<circle opacity="0.52" fill="url(#SVGID_6_)" cx="1671.66" cy="1552.172" r="111.592"/>
<linearGradient id="SVGID_7_" gradientUnits="userSpaceOnUse" x1="2290.583" y1="918.5205" x2="2327.4976" y2="854.5826">
	<stop  offset="0" style="stop-color:#FFFFFF"/>
	<stop  offset="0" style="stop-color:#FFFFFF"/>
	<stop  offset="0.0995" style="stop-color:#FFFAF8"/>
	<stop  offset="0.2409" style="stop-color:#FDECE6"/>
	<stop  offset="0.4073" style="stop-color:#FBD5C7"/>
	<stop  offset="0.5927" style="stop-color:#F9B59D"/>
	<stop  offset="0.7938" style="stop-color:#F58B66"/>
	<stop  offset="1" style="stop-color:#F15B26"/>
</linearGradient>
<circle opacity="0.52" fill="url(#SVGID_7_)" cx="2309.041" cy="886.552" r="36.909"/>
</svg>
